<mxfile host="app.diagrams.net" modified="2022-11-11T15:48:50.325Z" agent="5.0 (Windows NT 6.1; Win64; x64) AppleWebKit/537.36 (KHTML, like Gecko) Chrome/107.0.0.0 Safari/537.36" etag="f6drHw0gvN6vL4VyB1-u" version="20.3.6" type="github">
  <diagram id="Z36o00kbGuBx3ri5EeKG" name="第 1 页">
    <mxGraphModel dx="1422" dy="762" grid="1" gridSize="10" guides="1" tooltips="1" connect="1" arrows="1" fold="1" page="1" pageScale="1" pageWidth="827" pageHeight="1169" math="0" shadow="0">
      <root>
        <mxCell id="0" />
        <mxCell id="1" parent="0" />
        <mxCell id="NSLowA0IYDRnmuH5qseJ-1" value="&lt;font style=&quot;font-size: 24px;&quot;&gt;密码学&lt;/font&gt;" style="rounded=0;whiteSpace=wrap;html=1;" vertex="1" parent="1">
          <mxGeometry x="90" y="70" width="630" height="70" as="geometry" />
        </mxCell>
        <mxCell id="NSLowA0IYDRnmuH5qseJ-4" value="机密性" style="ellipse;whiteSpace=wrap;html=1;aspect=fixed;fontSize=24;fillColor=#dae8fc;strokeColor=#6c8ebf;" vertex="1" parent="1">
          <mxGeometry x="120" y="190" width="80" height="80" as="geometry" />
        </mxCell>
        <mxCell id="NSLowA0IYDRnmuH5qseJ-5" value="完整性&lt;span style=&quot;color: rgba(0, 0, 0, 0); font-family: monospace; font-size: 0px; text-align: start;&quot;&gt;%3CmxGraphModel%3E%3Croot%3E%3CmxCell%20id%3D%220%22%2F%3E%3CmxCell%20id%3D%221%22%20parent%3D%220%22%2F%3E%3CmxCell%20id%3D%222%22%20value%3D%22%E6%9C%BA%E5%AF%86%E6%80%A7%22%20style%3D%22ellipse%3BwhiteSpace%3Dwrap%3Bhtml%3D1%3Baspect%3Dfixed%3BfontSize%3D24%3B%22%20vertex%3D%221%22%20parent%3D%221%22%3E%3CmxGeometry%20x%3D%2250%22%20y%3D%22280%22%20width%3D%2280%22%20height%3D%2280%22%20as%3D%22geometry%22%2F%3E%3C%2FmxCell%3E%3C%2Froot%3E%3C%2FmxGraphModel%3E&lt;/span&gt;" style="ellipse;whiteSpace=wrap;html=1;aspect=fixed;fontSize=24;fillColor=#d5e8d4;strokeColor=#82b366;" vertex="1" parent="1">
          <mxGeometry x="250" y="190" width="80" height="80" as="geometry" />
        </mxCell>
        <mxCell id="NSLowA0IYDRnmuH5qseJ-6" value="身份验证" style="ellipse;whiteSpace=wrap;html=1;aspect=fixed;fontSize=24;fillColor=#fff2cc;strokeColor=#d6b656;" vertex="1" parent="1">
          <mxGeometry x="385" y="190" width="80" height="80" as="geometry" />
        </mxCell>
        <mxCell id="NSLowA0IYDRnmuH5qseJ-7" value="不可抵赖行" style="ellipse;whiteSpace=wrap;html=1;aspect=fixed;fontSize=24;fillColor=#f8cecc;strokeColor=#b85450;" vertex="1" parent="1">
          <mxGeometry x="520" y="190" width="80" height="80" as="geometry" />
        </mxCell>
        <mxCell id="NSLowA0IYDRnmuH5qseJ-14" value="" style="edgeStyle=orthogonalEdgeStyle;rounded=0;orthogonalLoop=1;jettySize=auto;html=1;fontSize=24;" edge="1" parent="1" source="NSLowA0IYDRnmuH5qseJ-9" target="NSLowA0IYDRnmuH5qseJ-13">
          <mxGeometry relative="1" as="geometry" />
        </mxCell>
        <mxCell id="NSLowA0IYDRnmuH5qseJ-9" value="哈希算法" style="ellipse;shape=cloud;whiteSpace=wrap;html=1;fontSize=24;" vertex="1" parent="1">
          <mxGeometry x="100" y="630" width="120" height="80" as="geometry" />
        </mxCell>
        <UserObject label="https://res.weread.qq.com/wrepub/epub_23914544_11" link="https://res.weread.qq.com/wrepub/epub_23914544_11" id="NSLowA0IYDRnmuH5qseJ-11">
          <mxCell style="text;whiteSpace=wrap;html=1;fontSize=24;" vertex="1" parent="1">
            <mxGeometry x="460" y="455" width="560" height="50" as="geometry" />
          </mxCell>
        </UserObject>
        <mxCell id="NSLowA0IYDRnmuH5qseJ-13" value="摘要/散列值/指纹=hash（消息）" style="rounded=1;whiteSpace=wrap;html=1;fontSize=24;" vertex="1" parent="1">
          <mxGeometry x="300" y="640" width="450" height="60" as="geometry" />
        </mxCell>
      </root>
    </mxGraphModel>
  </diagram>
</mxfile>
